<mxfile host="www.draw.io" modified="2020-02-25T00:30:37.782Z" agent="Mozilla/5.0 (Macintosh; Intel Mac OS X 10_15_3) AppleWebKit/537.36 (KHTML, like Gecko) Chrome/79.0.3945.130 Safari/537.36" etag="vFaDwvnvi-vhbXbkdLOe" version="12.7.4" type="github">
  <diagram id="ag3dVYCGJuGmBB14NgHO" name="Page-1">
    <mxGraphModel dx="1186" dy="773" grid="1" gridSize="10" guides="1" tooltips="1" connect="1" arrows="1" fold="1" page="1" pageScale="1" pageWidth="827" pageHeight="1169" math="0" shadow="0">
      <root>
        <mxCell id="0" />
        <mxCell id="1" parent="0" />
        <mxCell id="snt15m9TcJzvURxw8jZ2-1" value="Service&lt;br&gt;Cloud" style="ellipse;whiteSpace=wrap;html=1;aspect=fixed;fillColor=#dae8fc;strokeColor=#6c8ebf;" vertex="1" parent="1">
          <mxGeometry x="180" y="150" width="80" height="80" as="geometry" />
        </mxCell>
        <mxCell id="snt15m9TcJzvURxw8jZ2-2" value="" style="verticalLabelPosition=bottom;shadow=0;dashed=0;align=center;html=1;verticalAlign=top;strokeWidth=1;shape=mxgraph.mockup.misc.mail2;strokeColor=#999999;" vertex="1" parent="1">
          <mxGeometry x="10" y="170" width="70" height="40" as="geometry" />
        </mxCell>
        <mxCell id="snt15m9TcJzvURxw8jZ2-3" value="" style="verticalLabelPosition=bottom;verticalAlign=top;html=1;shadow=0;dashed=0;strokeWidth=1;shape=mxgraph.android.phone2;strokeColor=#c0c0c0;" vertex="1" parent="1">
          <mxGeometry x="360" y="150" width="60" height="80" as="geometry" />
        </mxCell>
        <mxCell id="snt15m9TcJzvURxw8jZ2-4" value="" style="whiteSpace=wrap;html=1;fillColor=#f5f5f5;strokeColor=#666666;fontColor=#333333;" vertex="1" parent="1">
          <mxGeometry x="135" y="10" width="170" height="60" as="geometry" />
        </mxCell>
        <mxCell id="snt15m9TcJzvURxw8jZ2-5" value="" style="shape=image;html=1;verticalAlign=top;verticalLabelPosition=bottom;labelBackgroundColor=#ffffff;imageAspect=0;aspect=fixed;image=https://cdn3.iconfinder.com/data/icons/social-network-2/512/650867-facebook-128.png;fillColor=#f5f5f5;strokeColor=#666666;fontColor=#333333;" vertex="1" parent="1">
          <mxGeometry x="145" y="20" width="40" height="40" as="geometry" />
        </mxCell>
        <mxCell id="snt15m9TcJzvURxw8jZ2-6" value="" style="shape=image;html=1;verticalAlign=top;verticalLabelPosition=bottom;labelBackgroundColor=#ffffff;imageAspect=0;aspect=fixed;image=https://cdn3.iconfinder.com/data/icons/social-network-2/512/650855-twitter-128.png;fillColor=#f5f5f5;strokeColor=#666666;fontColor=#333333;" vertex="1" parent="1">
          <mxGeometry x="200" y="20" width="40" height="40" as="geometry" />
        </mxCell>
        <mxCell id="snt15m9TcJzvURxw8jZ2-7" value="" style="dashed=0;outlineConnect=0;html=1;align=center;labelPosition=center;verticalLabelPosition=bottom;verticalAlign=top;shape=mxgraph.weblogos.instagram;fillColor=#f5f5f5;strokeColor=#666666;fontColor=#333333;" vertex="1" parent="1">
          <mxGeometry x="255" y="20" width="40" height="40" as="geometry" />
        </mxCell>
        <mxCell id="snt15m9TcJzvURxw8jZ2-8" style="edgeStyle=orthogonalEdgeStyle;rounded=0;orthogonalLoop=1;jettySize=auto;html=1;exitX=0.5;exitY=1;exitDx=0;exitDy=0;fillColor=#f5f5f5;strokeColor=#666666;" edge="1" parent="1" source="snt15m9TcJzvURxw8jZ2-4" target="snt15m9TcJzvURxw8jZ2-4">
          <mxGeometry relative="1" as="geometry" />
        </mxCell>
        <mxCell id="snt15m9TcJzvURxw8jZ2-10" value="" style="pointerEvents=1;shadow=0;dashed=0;html=1;strokeColor=none;fillColor=#505050;labelPosition=center;verticalLabelPosition=bottom;verticalAlign=top;outlineConnect=0;align=center;shape=mxgraph.office.devices.phone_traditional;" vertex="1" parent="1">
          <mxGeometry x="70" y="280" width="48" height="40" as="geometry" />
        </mxCell>
        <mxCell id="snt15m9TcJzvURxw8jZ2-11" value="desktop" style="outlineConnect=0;gradientColor=none;fontColor=#545B64;strokeColor=none;fillColor=#879196;dashed=0;verticalLabelPosition=bottom;verticalAlign=top;align=center;html=1;fontSize=12;fontStyle=0;aspect=fixed;shape=mxgraph.aws4.illustration_desktop;pointerEvents=1" vertex="1" parent="1">
          <mxGeometry x="190" y="310" width="60" height="54.6" as="geometry" />
        </mxCell>
        <mxCell id="snt15m9TcJzvURxw8jZ2-12" value="" style="shape=image;html=1;verticalAlign=top;verticalLabelPosition=bottom;labelBackgroundColor=#ffffff;imageAspect=0;aspect=fixed;image=https://cdn3.iconfinder.com/data/icons/forall/1062/window-128.png" vertex="1" parent="1">
          <mxGeometry x="310" y="270" width="60" height="60" as="geometry" />
        </mxCell>
        <mxCell id="snt15m9TcJzvURxw8jZ2-13" value="" style="endArrow=classic;startArrow=classic;html=1;fillColor=#dae8fc;strokeColor=#6c8ebf;" edge="1" parent="1">
          <mxGeometry width="50" height="50" relative="1" as="geometry">
            <mxPoint x="90" y="189.5" as="sourcePoint" />
            <mxPoint x="170" y="189.5" as="targetPoint" />
          </mxGeometry>
        </mxCell>
        <mxCell id="snt15m9TcJzvURxw8jZ2-14" value="" style="endArrow=classic;startArrow=classic;html=1;fillColor=#dae8fc;strokeColor=#6c8ebf;" edge="1" parent="1">
          <mxGeometry width="50" height="50" relative="1" as="geometry">
            <mxPoint x="270" y="189.5" as="sourcePoint" />
            <mxPoint x="350" y="189.5" as="targetPoint" />
          </mxGeometry>
        </mxCell>
        <mxCell id="snt15m9TcJzvURxw8jZ2-15" value="" style="endArrow=classic;startArrow=classic;html=1;fillColor=#dae8fc;strokeColor=#6c8ebf;" edge="1" parent="1">
          <mxGeometry width="50" height="50" relative="1" as="geometry">
            <mxPoint x="255" y="219.5" as="sourcePoint" />
            <mxPoint x="305" y="280" as="targetPoint" />
          </mxGeometry>
        </mxCell>
        <mxCell id="snt15m9TcJzvURxw8jZ2-16" value="" style="endArrow=classic;startArrow=classic;html=1;fillColor=#dae8fc;strokeColor=#6c8ebf;" edge="1" parent="1">
          <mxGeometry width="50" height="50" relative="1" as="geometry">
            <mxPoint x="185" y="230" as="sourcePoint" />
            <mxPoint x="130" y="280" as="targetPoint" />
          </mxGeometry>
        </mxCell>
        <mxCell id="snt15m9TcJzvURxw8jZ2-17" value="" style="endArrow=classic;startArrow=classic;html=1;fillColor=#dae8fc;strokeColor=#6c8ebf;" edge="1" parent="1">
          <mxGeometry width="50" height="50" relative="1" as="geometry">
            <mxPoint x="220" y="240" as="sourcePoint" />
            <mxPoint x="220" y="300" as="targetPoint" />
          </mxGeometry>
        </mxCell>
        <mxCell id="snt15m9TcJzvURxw8jZ2-18" value="" style="endArrow=classic;startArrow=classic;html=1;fillColor=#dae8fc;strokeColor=#6c8ebf;" edge="1" parent="1">
          <mxGeometry width="50" height="50" relative="1" as="geometry">
            <mxPoint x="220" y="140" as="sourcePoint" />
            <mxPoint x="220" y="80" as="targetPoint" />
          </mxGeometry>
        </mxCell>
        <mxCell id="snt15m9TcJzvURxw8jZ2-19" value="Salesforce Interactions&lt;br style=&quot;font-size: 17px;&quot;&gt;by channel" style="text;html=1;align=center;verticalAlign=middle;resizable=0;points=[];autosize=1;fontColor=#000000;fontSize=17;" vertex="1" parent="1">
          <mxGeometry x="345" y="10" width="190" height="50" as="geometry" />
        </mxCell>
        <mxCell id="snt15m9TcJzvURxw8jZ2-20" value="Service&lt;br&gt;Cloud" style="ellipse;whiteSpace=wrap;html=1;aspect=fixed;fillColor=#dae8fc;strokeColor=#6c8ebf;" vertex="1" parent="1">
          <mxGeometry x="360" y="680" width="80" height="80" as="geometry" />
        </mxCell>
        <mxCell id="snt15m9TcJzvURxw8jZ2-21" value="" style="shape=image;html=1;verticalAlign=top;verticalLabelPosition=bottom;labelBackgroundColor=#ffffff;imageAspect=0;aspect=fixed;image=https://cdn2.iconfinder.com/data/icons/free-1/128/Page__web__web_page-128.png;fontSize=17;fontColor=#000000;" vertex="1" parent="1">
          <mxGeometry x="190.5" y="650" width="99" height="99" as="geometry" />
        </mxCell>
        <mxCell id="snt15m9TcJzvURxw8jZ2-22" value="Service console" style="text;html=1;align=center;verticalAlign=middle;resizable=0;points=[];autosize=1;fontSize=17;fontColor=#000000;" vertex="1" parent="1">
          <mxGeometry x="170" y="620" width="140" height="30" as="geometry" />
        </mxCell>
        <mxCell id="snt15m9TcJzvURxw8jZ2-23" value="Case Management Tools" style="text;html=1;align=center;verticalAlign=middle;resizable=0;points=[];autosize=1;fontSize=17;fontColor=#000000;" vertex="1" parent="1">
          <mxGeometry x="215" y="583" width="200" height="30" as="geometry" />
        </mxCell>
        <mxCell id="snt15m9TcJzvURxw8jZ2-24" value="Knowledge Base" style="text;html=1;align=center;verticalAlign=middle;resizable=0;points=[];autosize=1;fontSize=17;fontColor=#000000;" vertex="1" parent="1">
          <mxGeometry x="514" y="637" width="140" height="30" as="geometry" />
        </mxCell>
        <mxCell id="snt15m9TcJzvURxw8jZ2-25" value="Self-Service from &lt;br&gt;Customer Community" style="text;html=1;align=center;verticalAlign=middle;resizable=0;points=[];autosize=1;fontSize=17;fontColor=#000000;" vertex="1" parent="1">
          <mxGeometry x="465" y="752" width="180" height="50" as="geometry" />
        </mxCell>
        <mxCell id="snt15m9TcJzvURxw8jZ2-33" style="edgeStyle=orthogonalEdgeStyle;rounded=0;orthogonalLoop=1;jettySize=auto;html=1;exitX=1;exitY=0.5;exitDx=0;exitDy=0;fontSize=17;fontColor=#000000;" edge="1" parent="1" source="snt15m9TcJzvURxw8jZ2-26" target="snt15m9TcJzvURxw8jZ2-29">
          <mxGeometry relative="1" as="geometry" />
        </mxCell>
        <mxCell id="snt15m9TcJzvURxw8jZ2-35" value="AssignTo" style="text;html=1;align=center;verticalAlign=middle;resizable=0;points=[];labelBackgroundColor=#ffffff;fontSize=12;fontColor=#000000;" vertex="1" connectable="0" parent="snt15m9TcJzvURxw8jZ2-33">
          <mxGeometry x="-0.1011" y="-1" relative="1" as="geometry">
            <mxPoint y="-11" as="offset" />
          </mxGeometry>
        </mxCell>
        <mxCell id="snt15m9TcJzvURxw8jZ2-26" value="Service&lt;br&gt;Cloud" style="ellipse;whiteSpace=wrap;html=1;aspect=fixed;fillColor=#dae8fc;strokeColor=#6c8ebf;" vertex="1" parent="1">
          <mxGeometry x="360" y="960" width="80" height="80" as="geometry" />
        </mxCell>
        <mxCell id="snt15m9TcJzvURxw8jZ2-27" value="Case Routing" style="text;html=1;align=center;verticalAlign=middle;resizable=0;points=[];autosize=1;fontSize=17;fontColor=#000000;" vertex="1" parent="1">
          <mxGeometry x="340" y="903" width="120" height="30" as="geometry" />
        </mxCell>
        <mxCell id="snt15m9TcJzvURxw8jZ2-32" style="edgeStyle=orthogonalEdgeStyle;rounded=0;orthogonalLoop=1;jettySize=auto;html=1;entryX=0;entryY=0.5;entryDx=0;entryDy=0;fontSize=17;fontColor=#000000;" edge="1" parent="1" source="snt15m9TcJzvURxw8jZ2-28" target="snt15m9TcJzvURxw8jZ2-26">
          <mxGeometry relative="1" as="geometry" />
        </mxCell>
        <mxCell id="snt15m9TcJzvURxw8jZ2-36" value="Create&lt;br&gt;Case" style="text;html=1;align=center;verticalAlign=middle;resizable=0;points=[];labelBackgroundColor=#ffffff;fontSize=12;fontColor=#000000;" vertex="1" connectable="0" parent="snt15m9TcJzvURxw8jZ2-32">
          <mxGeometry x="0.04" y="-1" relative="1" as="geometry">
            <mxPoint x="3" y="-18" as="offset" />
          </mxGeometry>
        </mxCell>
        <mxCell id="snt15m9TcJzvURxw8jZ2-28" value="Channel/Case Type" style="text;html=1;align=center;verticalAlign=middle;resizable=0;points=[];autosize=1;fontSize=17;fontColor=#000000;" vertex="1" parent="1">
          <mxGeometry x="100" y="985" width="160" height="30" as="geometry" />
        </mxCell>
        <mxCell id="snt15m9TcJzvURxw8jZ2-29" value="Person/Area" style="text;html=1;align=center;verticalAlign=middle;resizable=0;points=[];autosize=1;fontSize=17;fontColor=#000000;" vertex="1" parent="1">
          <mxGeometry x="529" y="985" width="110" height="30" as="geometry" />
        </mxCell>
      </root>
    </mxGraphModel>
  </diagram>
</mxfile>
